<?xml version="1.0" encoding="utf-8"?>
<!-- Generator: Adobe Illustrator 23.0.1, SVG Export Plug-In . SVG Version: 6.00 Build 0)  -->
<svg version="1.1" id="Layer_1" xmlns="http://www.w3.org/2000/svg" xmlns:xlink="http://www.w3.org/1999/xlink" x="0px" y="0px"
	 viewBox="0 0 167 169" style="enable-background:new 0 0 167 169;" xml:space="preserve">
<style type="text/css">
	.st0{fill:#FFFFFF;}
</style>
<path class="st0" d="M149.3,45h-128C14.1,56.5,9.9,70.2,9.9,84.8c0,0.7,0,1.4,0,2.1c33.9-28.3,116-34.9,142.7-36.1
	C151.6,48.8,150.5,46.9,149.3,45z M85.3,9.4c-25.1,0-47.3,12.3-61,31.2h122C132.6,21.7,110.4,9.4,85.3,9.4z M158.8,67.9
	c-10.1,8.2-47.2,24.3-42.4,85.7c26.2-11.8,44.4-38.2,44.4-68.8C160.7,79,160,73.3,158.8,67.9z M157.9,66.4c0.1,0,0.3-0.1,0.4-0.1
	c-0.5-2-1.1-4-1.8-6c-1.5,0.2-3.1,0.4-4.7,0.7l-1.4-1.9c1.9-0.3,3.7-0.5,5.5-0.6c-0.7-1.8-1.4-3.6-2.2-5.3
	c-33.5,4-100.1,5.7-142.2,45.5c-0.1,0.1-0.2,0.2-0.3,0.3c2.9,15.5,10.6,29.3,21.4,39.9c2.4-6.2,5.4-12,9-17.5l10.1,3.7
	c-4,6.5-7.4,13.5-10.1,21.2c12.3,8.8,27.4,14,43.8,14c6.8,0,13.4-0.9,19.7-2.6C99.9,97.5,148.2,68.8,157.9,66.4z M64.5,107.8
	l-8.2-4.4c6.8-6.7,14.4-12.6,22.4-17.7l6.1,3.9C77.6,94.8,70.7,100.8,64.5,107.8z M142.1,60.4l2,2.1c-4.3,1-8.9,2.3-13.9,3.9
	l-1.9-2.8C133.1,62.4,137.7,61.3,142.1,60.4z M96.5,75.7c6.3-3,12.6-5.6,18.8-7.8l3.2,3c-6.1,2.5-12.3,5.5-18.6,9L96.5,75.7z"/>
</svg>
